<svg width="243" height="61" viewBox="0 0 243 61" fill="none" xmlns="http://www.w3.org/2000/svg">
<path d="M55.0314 25.2903C55.0314 17.7253 48.9116 11.5624 41.3622 11.4929C39.7435 4.96927 33.8132 0.229126 26.9536 0.229126C18.7679 0.229126 12.1083 6.88867 12.1083 15.0744C12.1083 15.1449 12.1088 15.2154 12.1097 15.2863C12.0406 15.285 11.9714 15.2845 11.9023 15.2845C5.33936 15.2845 0 20.6234 0 27.1864C0 33.7493 5.33936 39.0887 11.9023 39.0887H13.2376V43.9185C11.1205 44.6519 9.59564 46.6647 9.59564 49.0281C9.59564 52.0091 12.0209 54.4343 15.0018 54.4343C17.9832 54.4343 20.4085 52.0091 20.4085 49.0281C20.4085 46.6647 18.8832 44.6519 16.7661 43.9185V39.0887H25.7515V49.7134C23.6343 50.4467 22.1091 52.4595 22.1091 54.8229C22.1091 57.8039 24.5343 60.2291 27.5157 60.2291C30.4967 60.2291 32.9219 57.8039 32.9219 54.8229C32.9219 52.4595 31.3971 50.4467 29.2799 49.7134V39.0887H38.2649V43.9185C36.1478 44.6519 34.623 46.6647 34.623 49.0281C34.623 52.0091 37.0482 54.4343 40.0291 54.4343C43.0106 54.4343 45.4358 52.0091 45.4358 49.0281C45.4358 46.6647 43.9105 44.6519 41.7934 43.9185V39.0763C49.1432 38.7811 55.0314 32.7111 55.0314 25.2903ZM15.0023 50.9063C13.9664 50.9063 13.1241 50.0636 13.1241 49.0281C13.1241 47.9922 13.9664 47.1499 15.0023 47.1499C16.0378 47.1499 16.88 47.9922 16.88 49.0281C16.88 50.0636 16.0378 50.9063 15.0023 50.9063ZM27.5157 56.7007C26.4803 56.7007 25.638 55.8584 25.638 54.8229C25.638 53.787 26.4803 52.9447 27.5157 52.9447C28.5516 52.9447 29.3939 53.787 29.3939 54.8229C29.3939 55.8584 28.5512 56.7007 27.5157 56.7007ZM40.0296 50.9063C38.9937 50.9063 38.1514 50.0636 38.1514 49.0281C38.1514 47.9922 38.9937 47.1499 40.0296 47.1499C41.0651 47.1499 41.9078 47.9922 41.9078 49.0281C41.9078 50.0636 41.0651 50.9063 40.0296 50.9063Z" fill="#1741D4"/>
<path d="M70.2017 44.32V15.2291H82.2187C84.3967 15.2291 86.2765 15.6553 87.8579 16.5075C89.4488 17.3503 90.6751 18.5293 91.5369 20.0445C92.3986 21.5501 92.8295 23.302 92.8295 25.3001C92.8295 27.3077 92.3892 29.0644 91.5085 30.57C90.6373 32.0662 89.392 33.2263 87.7727 34.0501C86.1534 34.874 84.231 35.2859 82.0056 35.2859H74.5909V29.7462H80.6988C81.7594 29.7462 82.6448 29.5615 83.3551 29.1922C84.0748 28.8229 84.6193 28.3068 84.9886 27.6439C85.3579 26.9715 85.5426 26.1903 85.5426 25.3001C85.5426 24.4005 85.3579 23.624 84.9886 22.9706C84.6193 22.3077 84.0748 21.7964 83.3551 21.4365C82.6354 21.0767 81.75 20.8967 80.6988 20.8967H77.2329V44.32H70.2017Z" fill="black"/>
<path d="M103.241 15.2291V44.32H96.2954V15.2291H103.241Z" fill="black"/>
<path d="M113.813 44.6894C112.421 44.6894 111.185 44.4573 110.106 43.9933C109.036 43.5198 108.188 42.8096 107.563 41.8626C106.948 40.9062 106.64 39.7083 106.64 38.2689C106.64 37.0568 106.853 36.0341 107.279 35.2007C107.705 34.3674 108.292 33.6903 109.04 33.1695C109.789 32.6486 110.65 32.2556 111.626 31.9905C112.601 31.7159 113.643 31.5312 114.751 31.4365C115.991 31.3229 116.99 31.2045 117.748 31.0814C118.505 30.9488 119.055 30.7642 119.396 30.5274C119.746 30.2812 119.921 29.9356 119.921 29.4905V29.4195C119.921 28.6903 119.67 28.1269 119.168 27.7291C118.666 27.3314 117.989 27.1325 117.137 27.1325C116.218 27.1325 115.48 27.3314 114.921 27.7291C114.362 28.1269 114.007 28.6761 113.856 29.3769L107.45 29.1496C107.639 27.8238 108.127 26.6401 108.913 25.5984C109.708 24.5473 110.797 23.7234 112.18 23.1269C113.572 22.5208 115.243 22.2178 117.194 22.2178C118.586 22.2178 119.869 22.3835 121.043 22.7149C122.218 23.0369 123.24 23.5104 124.111 24.1354C124.983 24.7509 125.655 25.5085 126.129 26.4081C126.611 27.3077 126.853 28.3352 126.853 29.4905V44.32H120.319V41.2803H120.148C119.76 42.0189 119.263 42.6439 118.657 43.1553C118.06 43.6666 117.355 44.0501 116.54 44.3058C115.736 44.5615 114.826 44.6894 113.813 44.6894ZM115.958 40.1439C116.706 40.1439 117.379 39.9924 117.975 39.6894C118.581 39.3863 119.064 38.9697 119.424 38.4394C119.784 37.8996 119.964 37.2746 119.964 36.5644V34.4905C119.765 34.5947 119.523 34.6894 119.239 34.7746C118.965 34.8598 118.662 34.9403 118.33 35.0161C117.999 35.0918 117.658 35.1581 117.307 35.2149C116.957 35.2717 116.621 35.3238 116.299 35.3712C115.646 35.4753 115.087 35.6363 114.623 35.8541C114.168 36.0719 113.818 36.356 113.572 36.7064C113.335 37.0473 113.217 37.4545 113.217 37.928C113.217 38.6477 113.472 39.1969 113.984 39.5757C114.504 39.9545 115.163 40.1439 115.958 40.1439Z" fill="black"/>
<path d="M138.046 31.8769V44.32H131.1V22.5019H137.705V26.5075H137.947C138.43 25.1723 139.254 24.1259 140.418 23.3683C141.583 22.6013 142.97 22.2178 144.58 22.2178C146.114 22.2178 147.445 22.5634 148.572 23.2547C149.708 23.9365 150.589 24.893 151.214 26.124C151.848 27.3456 152.161 28.7755 152.151 30.4138V44.32H145.205V31.7774C145.215 30.5653 144.907 29.6183 144.282 28.9365C143.666 28.2547 142.809 27.9138 141.711 27.9138C140.982 27.9138 140.338 28.0748 139.779 28.3967C139.23 28.7092 138.804 29.159 138.501 29.7462C138.207 30.3333 138.056 31.0435 138.046 31.8769Z" fill="black"/>
<path d="M163.398 31.8769V44.32H156.452V15.2291H163.17V26.5075H163.412C163.904 25.1628 164.709 24.1117 165.827 23.3541C166.954 22.5966 168.331 22.2178 169.96 22.2178C171.494 22.2178 172.829 22.5587 173.966 23.2405C175.102 23.9128 175.983 24.8645 176.608 26.0956C177.242 27.3267 177.555 28.7661 177.545 30.4138V44.32H170.599V31.7774C170.609 30.5653 170.306 29.6183 169.69 28.9365C169.075 28.2547 168.208 27.9138 167.091 27.9138C166.362 27.9138 165.718 28.0748 165.159 28.3967C164.61 28.7092 164.179 29.159 163.866 29.7462C163.563 30.3333 163.407 31.0435 163.398 31.8769Z" fill="black"/>
<path d="M192.066 44.732C189.774 44.732 187.805 44.2632 186.157 43.3257C184.519 42.3787 183.254 41.0625 182.364 39.3769C181.484 37.6818 181.043 35.7168 181.043 33.482C181.043 31.2376 181.484 29.2727 182.364 27.5871C183.254 25.892 184.519 24.5757 186.157 23.6382C187.805 22.6912 189.774 22.2178 192.066 22.2178C194.358 22.2178 196.323 22.6912 197.961 23.6382C199.609 24.5757 200.873 25.892 201.754 27.5871C202.644 29.2727 203.089 31.2376 203.089 33.482C203.089 35.7168 202.644 37.6818 201.754 39.3769C200.873 41.0625 199.609 42.3787 197.961 43.3257C196.323 44.2632 194.358 44.732 192.066 44.732ZM192.109 39.4905C192.942 39.4905 193.647 39.2348 194.225 38.7234C194.803 38.2121 195.243 37.5019 195.546 36.5928C195.859 35.6837 196.015 34.6325 196.015 33.4394C196.015 32.2272 195.859 31.1666 195.546 30.2575C195.243 29.3484 194.803 28.6382 194.225 28.1269C193.647 27.6155 192.942 27.3598 192.109 27.3598C191.247 27.3598 190.518 27.6155 189.921 28.1269C189.334 28.6382 188.884 29.3484 188.572 30.2575C188.269 31.1666 188.117 32.2272 188.117 33.4394C188.117 34.6325 188.269 35.6837 188.572 36.5928C188.884 37.5019 189.334 38.2121 189.921 38.7234C190.518 39.2348 191.247 39.4905 192.109 39.4905Z" fill="black"/>
<path d="M225.695 29.1638L219.317 29.3342C219.251 28.8797 219.071 28.4772 218.778 28.1269C218.484 27.767 218.101 27.4876 217.627 27.2888C217.163 27.0805 216.623 26.9763 216.008 26.9763C215.203 26.9763 214.516 27.1373 213.948 27.4592C213.389 27.7812 213.115 28.2168 213.124 28.7661C213.115 29.1922 213.285 29.5615 213.636 29.874C213.995 30.1865 214.635 30.4375 215.553 30.6269L219.758 31.4223C221.936 31.839 223.555 32.5303 224.616 33.4962C225.686 34.4621 226.226 35.7405 226.235 37.3314C226.226 38.8276 225.78 40.1297 224.9 41.2376C224.029 42.3456 222.835 43.2073 221.32 43.8229C219.805 44.4289 218.072 44.732 216.121 44.732C213.006 44.732 210.548 44.0928 208.749 42.8144C206.959 41.5265 205.937 39.803 205.681 37.6439L212.542 37.4734C212.693 38.2689 213.086 38.875 213.721 39.2916C214.355 39.7083 215.165 39.9166 216.15 39.9166C217.04 39.9166 217.764 39.7509 218.323 39.4195C218.882 39.088 219.166 38.6477 219.175 38.0984C219.166 37.606 218.948 37.213 218.522 36.9195C218.096 36.6164 217.428 36.3797 216.519 36.2092L212.712 35.4848C210.525 35.0871 208.896 34.3532 207.826 33.2831C206.756 32.2036 206.226 30.8305 206.235 29.1638C206.226 27.7055 206.614 26.4602 207.4 25.428C208.186 24.3863 209.303 23.5909 210.752 23.0416C212.201 22.4924 213.91 22.2178 215.88 22.2178C218.834 22.2178 221.164 22.838 222.869 24.0786C224.573 25.3096 225.515 27.0047 225.695 29.1638Z" fill="black"/>
<path d="M241.97 22.5019V27.6155H228.206V22.5019H241.97ZM231.089 17.2746H238.035V37.4592C238.035 37.8854 238.102 38.231 238.234 38.4962C238.376 38.7519 238.58 38.9365 238.845 39.0501C239.11 39.1543 239.428 39.2064 239.797 39.2064C240.062 39.2064 240.341 39.1827 240.635 39.1354C240.938 39.0786 241.165 39.0312 241.317 38.9933L242.368 44.0075C242.036 44.1022 241.568 44.2206 240.962 44.3626C240.365 44.5047 239.65 44.5947 238.817 44.6325C237.188 44.7083 235.791 44.5189 234.626 44.0644C233.471 43.6003 232.586 42.8806 231.97 41.9053C231.364 40.9299 231.071 39.7036 231.089 38.2263V17.2746Z" fill="black"/>
</svg>
